<svg xmlns="http://www.w3.org/2000/svg" width="527" height="323" version="1.0" viewBox="0 0 395.25 242.25"><path fill="#ad9551" d="M196.476 62.202c.844 0 2.536.11 5.078.328 2.54.211 5.438.805 8.688 1.781 3.258.97 6.457 2.532 9.594 4.688 3.133 2.156 5.738 5.14 7.812 8.953 2.07 3.805 3.11 8.711 3.11 14.719 0 5-.766 9.215-2.297 12.64-1.524 3.43-3.532 6.247-6.032 8.454-2.492 2.199-5.132 3.933-7.921 5.203-2.793 1.261-5.48 2.168-8.063 2.718-2.586.555-4.789.891-6.61 1.016-1.812.125-2.933.188-3.359.188h-15.109v39.75c0 .761-.422 1.14-1.266 1.14h-16.515c-.844 0-1.266-.379-1.266-1.14v-58.532h34.156c.676 0 1.797-.082 3.36-.25 1.57-.175 3.265-.601 5.078-1.28 1.82-.677 3.367-1.798 4.64-3.36 1.27-1.563 1.907-3.742 1.907-6.547 0-2.79-.657-4.988-1.969-6.594-1.313-1.613-2.883-2.781-4.703-3.5-1.824-.719-3.516-1.18-5.078-1.39-1.563-.208-2.64-.313-3.235-.313H162.32V63.343c0-.758.422-1.14 1.266-1.14Zm0 0"/><path d="M49.6 182.992c2.206 0 4.124.37 5.75 1.109 1.632.73 2.89 1.773 3.765 3.125.883 1.355 1.328 2.96 1.328 4.812 0 1.836-.445 3.434-1.328 4.797-.875 1.367-2.133 2.414-3.766 3.14-1.625.731-3.543 1.095-5.75 1.095h-5.031v6.875h-5.781v-24.953Zm-.329 13.359c1.738 0 3.055-.367 3.953-1.11.907-.75 1.36-1.816 1.36-3.203 0-1.394-.453-2.468-1.36-3.218-.898-.75-2.215-1.125-3.953-1.125h-4.703v8.656ZM84.681 208.367c-2.593 0-4.933-.555-7.015-1.672-2.074-1.114-3.7-2.649-4.875-4.61-1.18-1.968-1.766-4.176-1.766-6.625 0-2.445.586-4.648 1.766-6.61 1.176-1.956 2.8-3.491 4.875-4.608 2.082-1.125 4.422-1.688 7.015-1.688 2.594 0 4.922.563 6.985 1.688 2.07 1.117 3.703 2.652 4.89 4.609 1.188 1.96 1.782 4.164 1.782 6.61 0 2.448-.594 4.656-1.782 6.624-1.187 1.961-2.82 3.496-4.89 4.61-2.063 1.117-4.39 1.672-6.985 1.672Zm0-4.922c1.47 0 2.797-.336 3.985-1.016a7.277 7.277 0 0 0 2.812-2.828c.676-1.207 1.016-2.586 1.016-4.14 0-1.54-.34-2.915-1.016-4.126a7.29 7.29 0 0 0-2.812-2.843c-1.188-.676-2.516-1.016-3.985-1.016-1.468 0-2.804.34-4 1.016a7.278 7.278 0 0 0-2.796 2.843c-.68 1.211-1.016 2.586-1.016 4.125 0 1.555.336 2.934 1.016 4.14a7.264 7.264 0 0 0 2.796 2.829c1.196.68 2.532 1.016 4 1.016ZM110.381 182.992h5.782v20.25h12.515v4.703h-18.297ZM162.51 182.992v24.953h-5.766V197.71H145.4v10.235h-5.781v-24.953h5.781v9.828h11.344v-9.828ZM188.223 208.367c-2.594 0-4.934-.555-7.016-1.672-2.074-1.114-3.699-2.649-4.875-4.61-1.18-1.968-1.765-4.176-1.765-6.625 0-2.445.586-4.648 1.765-6.61 1.176-1.956 2.801-3.491 4.875-4.608 2.082-1.125 4.422-1.688 7.016-1.688 2.594 0 4.922.563 6.984 1.688 2.07 1.117 3.704 2.652 4.891 4.609 1.188 1.96 1.781 4.164 1.781 6.61 0 2.448-.593 4.656-1.78 6.624-1.188 1.961-2.821 3.496-4.892 4.61-2.062 1.117-4.39 1.672-6.984 1.672Zm0-4.922c1.469 0 2.797-.336 3.984-1.016a7.277 7.277 0 0 0 2.813-2.828c.676-1.207 1.016-2.586 1.016-4.14 0-1.54-.34-2.915-1.016-4.126a7.29 7.29 0 0 0-2.813-2.843c-1.187-.676-2.515-1.016-3.984-1.016-1.469 0-2.805.34-4 1.016a7.278 7.278 0 0 0-2.797 2.843c-.68 1.211-1.015 2.586-1.015 4.125 0 1.555.336 2.934 1.015 4.14a7.264 7.264 0 0 0 2.797 2.829c1.195.68 2.531 1.016 4 1.016ZM237.923 182.992l-10.797 24.953h-5.703l-10.781-24.953h6.25l7.594 17.828 7.703-17.828ZM256.426 208.367c-1.968 0-3.875-.266-5.718-.797-1.844-.532-3.325-1.223-4.438-2.078l1.953-4.36c1.07.781 2.344 1.414 3.813 1.89a14.27 14.27 0 0 0 4.437.72c1.633 0 2.844-.243 3.625-.735.79-.488 1.188-1.133 1.188-1.937 0-.594-.235-1.086-.703-1.485-.461-.394-1.055-.707-1.782-.937-.73-.239-1.71-.504-2.937-.797-1.906-.445-3.469-.895-4.688-1.344a7.6 7.6 0 0 1-3.11-2.187c-.866-1-1.296-2.328-1.296-3.985 0-1.457.39-2.77 1.172-3.937.781-1.176 1.96-2.11 3.547-2.797 1.582-.695 3.515-1.047 5.797-1.047 1.593 0 3.148.195 4.672.578 1.52.375 2.851.922 4 1.64l-1.797 4.376c-2.305-1.301-4.606-1.953-6.907-1.953-1.617 0-2.812.261-3.593.78-.774.524-1.157 1.212-1.157 2.063 0 .868.442 1.508 1.329 1.922.894.407 2.257.813 4.093 1.219 1.907.461 3.461.914 4.672 1.36a7.693 7.693 0 0 1 3.11 2.14c.875.969 1.312 2.29 1.312 3.953 0 1.43-.402 2.73-1.203 3.906-.793 1.18-1.984 2.11-3.578 2.797-1.594.688-3.531 1.032-5.813 1.032ZM287.767 198.132l-3.344 3.5v6.313h-5.75v-24.953h5.75v11.656l11.047-11.656h6.422l-10.344 11.125 10.953 13.828h-6.75ZM312.759 182.992h5.781v24.953h-5.781ZM355.047 182.992v24.953h-5.766V197.71h-11.343v10.235h-5.782v-24.953h5.782v9.828h11.343v-9.828ZM166.761 225.446l-3.61 6.719c-.355.648-.777 1.136-1.265 1.468a2.871 2.871 0 0 1-1.594.485 3.76 3.76 0 0 1-1.375-.281l.47-1.5c.343.105.624.156.843.156.25 0 .469-.055.656-.172.195-.113.38-.297.547-.547l.063-.094-3.344-6.234h2.094l2.265 4.562 2.328-4.562ZM174.502 234.07c-.867 0-1.648-.187-2.344-.562a4.25 4.25 0 0 1-1.656-1.562c-.398-.664-.594-1.422-.594-2.266 0-.832.196-1.582.594-2.25a4.279 4.279 0 0 1 1.656-1.562c.696-.383 1.485-.578 2.36-.578.738 0 1.406.132 2 .39a4.044 4.044 0 0 1 1.5 1.125l-1.266 1.157c-.574-.657-1.289-.985-2.14-.985-.524 0-.993.117-1.407.344-.406.23-.726.555-.953.969-.23.406-.344.87-.344 1.39 0 .532.114 1.008.344 1.422.227.406.547.727.953.953.414.23.883.344 1.407.344.851 0 1.566-.332 2.14-1l1.266 1.156c-.406.5-.914.883-1.516 1.14-.594.25-1.262.376-2 .376ZM187.658 232.118h-3.937l-.75 1.812h-2.016l3.781-8.484h1.938l3.797 8.484h-2.063Zm-.61-1.5-1.359-3.25-1.343 3.25ZM202.98 232.337v3.359h-1.828v-1.766h-5.984v1.766h-1.813v-3.36h.344c.508-.019.867-.394 1.078-1.124.207-.727.336-1.766.39-3.11l.095-2.656h6.53v6.89Zm-6.078-4.063c-.043 1.012-.133 1.86-.265 2.547-.125.687-.32 1.195-.579 1.516h3.797v-5.297h-2.922ZM211.034 228.227c1.032 0 1.82.235 2.375.703.551.461.828 1.14.828 2.047 0 .961-.308 1.695-.921 2.203-.606.5-1.461.75-2.563.75h-3.828v-8.484h1.937v2.781Zm-.39 4.25c.507 0 .906-.125 1.187-.375.29-.25.438-.613.438-1.094 0-.882-.543-1.328-1.625-1.328h-1.782v2.797ZM218.286 225.446h6.844v1.562h-4.907v1.75h2.36c1.03 0 1.812.215 2.343.641.54.43.813 1.047.813 1.86 0 .843-.305 1.5-.906 1.968-.594.469-1.438.703-2.532.703h-4.015Zm3.906 7.031c.5 0 .879-.098 1.14-.297.27-.195.407-.488.407-.875 0-.738-.516-1.11-1.547-1.11h-1.969v2.282ZM235.587 232.118h-3.937l-.75 1.812h-2.016l3.781-8.484h1.938l3.797 8.484h-2.063Zm-.61-1.5-1.359-3.25-1.343 3.25Zm0 0"/><path fill="none" stroke="#000" stroke-width="2.24307" d="M264.328 231.48h55.41M76.809 231.48h55.406"/></svg>