<svg xmlns="http://www.w3.org/2000/svg" width="390" height="226" version="1.0" viewBox="0 0 292.5 169.5"><path fill="#ad9551" d="M145.422 46.043c.625 0 1.875.078 3.75.235 1.883.156 4.031.593 6.437 1.312 2.414.719 4.782 1.883 7.094 3.484 2.32 1.594 4.25 3.805 5.781 6.625 1.54 2.813 2.313 6.446 2.313 10.891 0 3.7-.57 6.82-1.703 9.36-1.125 2.53-2.618 4.617-4.47 6.25-1.843 1.624-3.804 2.906-5.874 3.843-2.063.938-4.055 1.61-5.969 2.016-1.906.406-3.531.656-4.875.75-1.344.094-2.172.14-2.484.14h-11.188v29.422c0 .563-.312.844-.937.844h-12.219c-.625 0-.937-.281-.937-.844V77.043h25.28c.5 0 1.329-.062 2.485-.187s2.406-.438 3.75-.938c1.352-.5 2.5-1.328 3.438-2.484.937-1.156 1.406-2.77 1.406-4.844 0-2.062-.484-3.687-1.453-4.875-.969-1.195-2.133-2.062-3.485-2.594-1.343-.531-2.593-.875-3.75-1.031-1.156-.156-1.953-.234-2.39-.234H120.14v-12.97c0-.562.312-.843.937-.843Zm0 0"/><path d="M36.714 135.433c1.633 0 3.051.273 4.25.812 1.207.543 2.133 1.32 2.782 2.328.656 1 .984 2.188.984 3.563 0 1.355-.328 2.539-.984 3.547-.649 1.011-1.575 1.789-2.782 2.328-1.199.531-2.617.797-4.25.797h-3.718v5.093h-4.282v-18.468Zm-.234 9.89c1.281 0 2.254-.273 2.922-.828.664-.55 1-1.336 1-2.36 0-1.038-.336-1.835-1-2.39-.668-.55-1.64-.828-2.922-.828h-3.484v6.406ZM62.684 154.214c-1.918 0-3.649-.41-5.188-1.234-1.543-.82-2.75-1.957-3.625-3.407-.867-1.457-1.297-3.093-1.297-4.906 0-1.812.43-3.441 1.297-4.89.875-1.458 2.082-2.598 3.625-3.422 1.54-.832 3.27-1.25 5.188-1.25 1.914 0 3.64.418 5.172 1.25 1.53.824 2.734 1.964 3.61 3.421.882 1.45 1.327 3.079 1.327 4.891 0 1.813-.445 3.45-1.328 4.906-.875 1.45-2.078 2.586-3.61 3.407-1.53.824-3.257 1.234-5.171 1.234Zm0-3.64c1.082 0 2.062-.25 2.937-.75a5.355 5.355 0 0 0 2.078-2.094c.508-.895.766-1.914.766-3.063 0-1.144-.258-2.164-.766-3.062a5.38 5.38 0 0 0-2.078-2.094c-.875-.5-1.855-.75-2.937-.75-1.094 0-2.086.25-2.969.75-.875.5-1.562 1.2-2.062 2.094-.5.898-.75 1.918-.75 3.062 0 1.149.25 2.168.75 3.063a5.368 5.368 0 0 0 2.062 2.093c.883.5 1.875.75 2.969.75ZM81.702 135.433h4.281v14.984h9.266v3.484H81.702ZM120.294 135.433V153.9h-4.281v-7.578h-8.39v7.578h-4.282v-18.468h4.281v7.281h8.39v-7.281ZM139.316 154.214c-1.918 0-3.649-.41-5.188-1.234-1.543-.82-2.75-1.957-3.625-3.407-.867-1.457-1.297-3.093-1.297-4.906 0-1.812.43-3.441 1.297-4.89.875-1.458 2.082-2.598 3.625-3.422 1.54-.832 3.27-1.25 5.188-1.25 1.914 0 3.64.418 5.172 1.25 1.531.824 2.734 1.964 3.61 3.421.882 1.45 1.327 3.079 1.327 4.891 0 1.813-.445 3.45-1.328 4.906-.875 1.45-2.078 2.586-3.61 3.407-1.53.824-3.257 1.234-5.171 1.234Zm0-3.64c1.082 0 2.062-.25 2.937-.75a5.355 5.355 0 0 0 2.078-2.094c.508-.895.766-1.914.766-3.063 0-1.144-.258-2.164-.766-3.062a5.38 5.38 0 0 0-2.078-2.094c-.875-.5-1.855-.75-2.937-.75-1.094 0-2.086.25-2.969.75-.875.5-1.562 1.2-2.062 2.094-.5.898-.75 1.918-.75 3.062 0 1.149.25 2.168.75 3.063a5.368 5.368 0 0 0 2.062 2.093c.883.5 1.875.75 2.969.75ZM176.1 135.433l-8 18.468h-4.219l-7.969-18.468h4.61l5.625 13.187 5.703-13.187ZM189.798 154.214c-1.469 0-2.887-.2-4.25-.594-1.355-.394-2.45-.91-3.281-1.547l1.453-3.218c.789.586 1.734 1.054 2.828 1.406a10.5 10.5 0 0 0 3.266.531c1.218 0 2.113-.18 2.687-.547.582-.363.875-.844.875-1.437 0-.438-.172-.801-.515-1.094-.344-.29-.79-.523-1.329-.703a25.906 25.906 0 0 0-2.156-.578c-1.406-.332-2.562-.664-3.469-1a5.583 5.583 0 0 1-2.312-1.61c-.637-.738-.953-1.722-.953-2.953 0-1.07.285-2.047.86-2.922.581-.875 1.456-1.566 2.624-2.078 1.176-.508 2.61-.765 4.297-.765 1.176 0 2.328.14 3.453.421 1.133.282 2.125.688 2.969 1.22l-1.328 3.25c-1.711-.97-3.414-1.454-5.11-1.454-1.199 0-2.086.195-2.656.578-.574.387-.86.899-.86 1.531 0 .637.329 1.11.985 1.422.664.305 1.676.606 3.031.907 1.407.336 2.555.668 3.454 1 .894.336 1.66.867 2.296 1.593.645.72.97 1.696.97 2.922a5.032 5.032 0 0 1-.891 2.89c-.586.868-1.465 1.556-2.641 2.063-1.18.508-2.61.766-4.297.766ZM212.99 146.651l-2.484 2.579v4.671h-4.25v-18.468h4.25v8.625l8.187-8.625h4.75l-7.656 8.234 8.094 10.234h-4.984ZM231.483 135.433h4.282V153.9h-4.282ZM262.793 135.433V153.9h-4.282v-7.578h-8.39v7.578h-4.281v-18.468h4.28v7.281h8.391v-7.281Zm0 0"/></svg>